<?xml version="1.0" encoding="UTF-8" standalone="no"?>
<svg width="256px" height="256px" viewBox="0 0 256 256" version="1.1" xmlns="http://www.w3.org/2000/svg" xmlns:xlink="http://www.w3.org/1999/xlink" preserveAspectRatio="xMidYMid">
    <g>
        <path d="M186.369231,0.0687692308 L147.015385,0.0687692308 L147.015385,186.969231 C164.209231,186.747692 178.629231,186.149231 186.369231,185.083077 L186.369231,0.0687692308 Z" fill="#44B78B"></path>
        <path d="M84.4923077,0.0687692308 L45.1384615,0.0687692308 L45.1384615,96.6153846 C56.6884615,96.6153846 68.0823077,96.7692308 79.1630769,96.6153846 C82.5538462,96.5641026 84.7384615,96.4358974 84.4923077,96.3589744 L84.4923077,0.0687692308 Z" fill="#44B78B"></path>
        <path d="M186.369231,185.083077 C169.230769,188.061538 151.876923,189.230769 133.250769,189.230769 C77.6430769,189.230769 38.7446154,174.436923 38.7446154,129.390769 C38.7446154,86.2532308 75.8646154,63.0769231 119.507692,63.0769231 C129.069231,63.0769231 138.338462,63.3230769 147.015385,64.6900308 L147.015385,30.7076923 C134.929231,29.2166154 124.029231,28.5641026 109.415385,28.5641026 C44.1107692,28.5641026 0,58.5846154 0,130.56 C0,197.883077 40.5907692,220.616615 133.126769,220.616615 C157.661538,220.616615 175.753846,218.775385 186.369231,216.267692 L186.369231,185.083077 Z" fill="#092E20"></path>
        <path d="M84.4923077,96.3589744 C83.7661538,96.3076923 81.5815385,96.4358974 79.1630769,96.6153846 C68.0823077,96.7692308 56.6884615,96.6153846 45.1384615,96.6153846 L45.1384615,143.876923 C45.1384615,174.002872 51.7299414,189.230769 79.7047619,189.230769 C84.2953846,189.230769 88.0984615,189.066667 91.9261538,188.676718 L91.9261538,129.320513 C91.9261538,110.97641 89.6923077,97.9692308 84.4923077,96.3589744 Z" fill="#44B78B"></path>
        <path d="M255.923077,121.064615 L241.309231,74.1538462 L214.021538,74.1538462 L229.661538,122.893538 C229.661538,122.893538 230.201538,123.803749 229.661538,124.553846 C216.516923,180.184615 193.670769,207.433846 193.670769,207.433846 L220.726154,207.433846 C220.726154,207.433846 240.072821,173.777641 252.8,124.923077 C253.067692,123.461538 255.923077,121.064615 255.923077,121.064615 Z" fill="#092E20"></path>
    </g>
</svg>