<svg xmlns="http://www.w3.org/2000/svg" width="100" height="40" viewBox="0 0 100 40">
  <g fill="#092E20">
    <path d="M40.9,8.5c-2.6,0-4.7,0.9-6.2,2.6c-1.5,1.7-2.3,4-2.3,6.8c0,2.7,0.8,4.9,2.3,6.6c1.5,1.7,3.6,2.6,6.2,2.6 c2.6,0,4.7-0.9,6.2-2.6c1.5-1.7,2.3-4,2.3-6.6c0-2.8-0.8-5-2.3-6.8C45.6,9.4,43.5,8.5,40.9,8.5z M44.6,22.4 c-0.9,1.1-2.1,1.6-3.7,1.6c-1.6,0-2.8-0.5-3.7-1.6c-0.9-1.1-1.3-2.5-1.3-4.4c0-1.9,0.4-3.4,1.3-4.5c0.9-1.1,2.1-1.6,3.7-1.6 c1.6,0,2.8,0.5,3.7,1.6c0.9,1.1,1.3,2.6,1.3,4.5C46,19.9,45.5,21.3,44.6,22.4z"/>
    <path d="M68.1,14.5v12.8h-3.4v-1.7c-1.2,1.3-2.7,1.9-4.4,1.9c-1.7,0-3.1-0.6-4.3-1.8c-1.1-1.2-1.7-2.9-1.7-5.1V14.5h3.4 v6.1c0,1.3,0.3,2.2,0.8,2.8c0.6,0.6,1.3,0.9,2.3,0.9c1,0,1.8-0.3,2.4-1c0.6-0.7,0.9-1.8,0.9-3.4v-5.5H68.1z"/>
    <path d="M83.1,15.8c-0.6-0.8-1.2-1.3-2-1.7c-0.7-0.3-1.5-0.5-2.3-0.5c-1.5,0-2.7,0.5-3.6,1.5c-0.9,1-1.3,2.4-1.3,4.2 c0,1.8,0.4,3.2,1.3,4.3c0.9,1,2.1,1.5,3.6,1.5c1.7,0,3-0.7,4.2-2v2.2h3.4V8.7h-3.4V15.8z M82,22c-0.5,0.7-1.3,1-2.2,1 c-0.9,0-1.7-0.3-2.2-1c-0.6-0.7-0.8-1.5-0.8-2.6c0-1.1,0.3-1.9,0.8-2.6c0.5-0.7,1.3-1,2.2-1c0.9,0,1.7,0.3,2.2,1 c0.6,0.7,0.8,1.5,0.8,2.6C82.8,20.5,82.6,21.3,82,22z"/>
    <path d="M10.8,9.1c0.2-1.1,0.3-2.1,0.3-3c0-0.7-0.6-1.5-1.5-1.5H6.7c-0.8,0-1.5,0.7-1.5,1.5v14.1c1.8-2.7,3.5-6.2,5.6-11.1 L10.8,9.1L10.8,9.1z M20.5,24.8c-0.2,0.9-1,1.6-2,1.6h-5.8c-0.9,0-1.5-0.2-2-0.6c-0.9-0.7-1.5-1.8-2-3.2c-1.9-5.2-5.2-10.4-7.8-14 V30c0,0.8,0.7,1.5,1.5,1.5h18.1c0.8,0,1.5-0.7,1.5-1.5v-6L20.5,24.8L20.5,24.8z M14.2,24.8c0,0.3-0.2,0.5-0.5,0.5h-3 c-0.3,0-0.5-0.2-0.5-0.5v-3c0-0.3,0.2-0.5,0.5-0.5h3c0.3,0,0.5,0.2,0.5,0.5V24.8z M20.9,4.6c0-0.8-0.7-1.5-1.5-1.5h-5.7 c0.2,0.9,0.3,1.7,0.3,2.5c0,4.1-1.6,9.7-2.8,13.1h4.6v-3c0-0.8,0.7-1.5,1.5-1.5h3c0.8,0,1.5,0.7,1.5,1.5v3h0.6L20.9,4.6 L20.9,4.6z"/>
  </g>
</svg>
