<svg xmlns="http://www.w3.org/2000/svg" width="120" height="40" viewBox="0 0 120 40">
  <g fill="#A30000">
    <path d="M14.5,8h-4C9.7,8,9,8.7,9,9.5v21C9,31.3,9.7,32,10.5,32h4c0.8,0,1.5-0.7,1.5-1.5v-21C16,8.7,15.3,8,14.5,8z"/>
    <path d="M27.5,8h-4C22.7,8,22,8.7,22,9.5v11c0,0.8-0.7,1.5-1.5,1.5h-2c-0.8,0-1.5-0.7-1.5-1.5v-11C17,8.7,16.3,8,15.5,8h-4 C10.7,8,10,8.7,10,9.5v12c0,2.5,2,4.5,4.5,4.5h2.8c1.2,0,2.4,0.5,3.2,1.4l5.2,5.9c0.3,0.3,0.7,0.5,1.1,0.5c0.2,0,0.4,0,0.6-0.1 c0.6-0.3,0.9-0.9,0.9-1.5V9.5C29,8.7,28.3,8,27.5,8z"/>
    <path d="M44.1,24.7c-0.5-0.5-0.5-1.4,0-1.9l7.4-7.4c0.5-0.5,0.5-1.4,0-1.9l-2.8-2.8c-0.5-0.5-1.4-0.5-1.9,0l-7.4,7.4 c-0.5,0.5-1.4,0.5-1.9,0l-7.4-7.4c-0.5-0.5-1.4-0.5-1.9,0l-2.8,2.8c-0.5,0.5-0.5,1.4,0,1.9l7.4,7.4c0.5,0.5,0.5,1.4,0,1.9l-7.4,7.4 c-0.5,0.5-0.5,1.4,0,1.9l2.8,2.8c0.5,0.5,1.4,0.5,1.9,0l7.4-7.4c0.5-0.5,1.4-0.5,1.9,0l7.4,7.4c0.5,0.5,1.4,0.5,1.9,0l2.8-2.8 c0.5-0.5,0.5-1.4,0-1.9L44.1,24.7z"/>
    <text x="55" y="27" font-family="Arial" font-size="14" font-weight="bold">REST</text>
  </g>
</svg>
