<?xml version="1.0" encoding="UTF-8" standalone="no"?>
<svg xmlns="http://www.w3.org/2000/svg" version="1.1" width="388.12" height="264.18" viewBox="0 0 388.12 264.18">
  <g transform="translate(1318.9 -1158.5)">
    <g transform="matrix(1.25 0 0 -1.25 -1128.6 1329.7)">
      <path d="m-42.266 55.312c-0.987 0-1.785 0.08-2.453 0.188v0.125h0.125c0.5 0.895 1.272 1.535 1.859 2.344 0.456 1.011 0.835 2.03 1.282 3.031 0.03 0 0.06 0 0.093 0 0.789-0.557 1.16-1.454 1.141-2.766-0.32-0.339-0.364-0.677-0.641-1.03-0.309-0.464-0.989-0.739-1.406-1.094zm58.844 0c-0.987 0-1.785 0.08-2.453 0.188v0.125h0.125c0.5 0.895 1.272 1.535 1.859 2.344 0.456 1.011 0.835 2.03 1.282 3.031 0.03 0 0.06 0 0.093 0 0.789-0.557 1.16-1.454 1.141-2.766-0.32-0.339-0.364-0.677-0.641-1.03-0.309-0.464-0.989-0.739-1.406-1.094z" fill="#00758f"/>
      <path d="m-78.28 42.629-0.313 0.156c0 0.35 0.034 0.637 0.094 0.906 0 0.04 0.03 0.085 0.031 0.125 0 0.04-0.031 0.053-0.031 0.094-0.222 1.16-0.626 2.069-1.313 2.875-0.686 0.806-1.587 1.458-2.656 2 0 0.01 0 0.022 0 0.031l0.281 0.156c2.387 1.751 4.531 2.957 6.406 3.594 3.346 1.135 7.026 0.802 10.469-0.219 0.861-0.257 1.782-0.55 2.844-0.875l1.063-0.281 1.063-0.25v-0.031c0.989-0.48 1.868-1.03 2.625-1.688 1.404-1.214 2.229-2.765 2.531-4.906-0.22-0.374-0.096-0.834-0.438-1.125-0.308-0.264-0.898-0.257-1.281-0.125-0.552 0.19-1.057 0.434-1.406 0.969-0.174 0.267-0.208 0.586-0.344 0.969-0.686 1.927-2.268 2.824-4.563 2.938-2.2 0.11-4.188-0.521-5.656-1.25-0.687-0.341-1.301-0.701-1.781-1.094-0.239-0.195-0.427-0.42-0.625-0.625-0.098-0.102-0.21-0.14-0.281-0.25 0.4-0.06 0.87-0.05 1.25-0.094 0.683-0.077 1.304-0.102 1.844-0.156 0.902-0.088 1.711-0.152 2.438-0.25 0.363-0.049 0.704-0.128 1.063-0.188 0.178-0.03 0.475-0.092 0.594-0.094h0.031v-0.062c-0.222-0.227-0.38-0.526-0.563-0.781-0.797-1.11-2.052-2.303-3.625-3.156-1.212-0.659-2.771-1.261-4.469-1.344-1.273-0.062-2.735 0.016-3.969 0.344-1.234 0.329-2.363 0.81-3.281 1.438v0.031h-0.031c-0.347 0.207-0.656 0.424-0.938 0.656z" fill="#00758f"/>
      <path d="m-19.219 42.661v0.063c-1.847 0.04-3.28 0.141-4.469 0.406h-0.031c-0.116 0.027-0.228 0.067-0.344 0.094-0.402 0.123-0.799 0.245-1.156 0.438-0.013 0.01-0.02 0.02-0.031 0.031l-0.531 0.5v3.219c0.798 0 1.399-0.08 1.781-0.219 0.687-0.25 1.254-0.746 1.688-1.5 0.433-0.755 0.656-1.674 0.656-2.781l2.406-0.25h0.031zm258.81 0.063v0.063c-1.847 0.04-3.28 0.141-4.469 0.406h-0.031c-0.116 0.027-0.228 0.067-0.344 0.094-0.402 0.123-0.799 0.245-1.156 0.438-0.013 0.01-0.02 0.02-0.031 0.031l-0.531 0.5v3.219c0.798 0 1.399-0.08 1.781-0.219 0.687-0.25 1.254-0.746 1.688-1.5 0.433-0.755 0.656-1.674 0.656-2.781l2.406-0.25h0.031z" fill="#f29111"/>
      <g transform="matrix(1.3021,0,0,1.3021,-107.18,91.016)">
        <path d="m39.05-10.143a9.573 9.573 0 0 0 -0.344 0.594c-0.157 0.329-0.221 0.565-0.469 0.906-0.473 0.648-0.984 1.276-1.5 1.875-0.516 0.599-0.957 1.083-1.625 1.594-0.649 0.498-1.558 0.949-2.406 0.969-0.804 0.019-1.584-0.177-2.188-0.531-0.604-0.354-1.047-0.82-1.406-1.438-0.718-1.235-0.988-2.852-0.938-5.094 0.018-0.782 0.119-1.79 0.281-2.719 0.075-0.43 0.188-0.832 0.344-1.219l0.094-0.344c0-0.018-0.023-0.013 0-0.031l-0.094 0.188c0.015-0.039 0.049-0.055 0.063-0.094 0 0.03 0 0.064 0 0.094 1.092-1.585 2.536-2.745 4-3.625 1.098-0.659 2.352-1.011 3.438-1.188 0.269-0.044 0.537-0.069 0.781-0.094l-0.063 0.063c-2.84 1.027-5.411 3.293-6.969 5.625-0.506 0.788-0.781 1.593-0.813 2.281-0.031 0.688 0.105 1.293 0.438 1.75 0.785 1.075 2.36 1.211 3.625 0.188 0.738-0.596 1.363-1.496 2.125-2.656 0.377-0.578 0.762-1.226 1.094-1.906 0.332-0.681 0.648-1.446 0.75-1.969l0.344-0.219v-0.031l0.125-0.063c0 0.031 0 0.062 0 0.094 0.026 0.882-0.087 1.679-0.344 2.406-0.247 0.698-0.585 1.32-1 1.938zm-12.844-4.812a0.262 0.262 0 0 1 0 0.094c-0.026 0.053-0.068 0.07-0.094 0.125 0.03-0.073 0.063-0.147 0.094-0.219zm-0.094 0.219 0.094 0.063c-0.061-0.003-0.096 0.018-0.156 0.031 0.022-0.036 0.041-0.058 0.063-0.094zm-1.219 3.094a13.657 13.657 0 0 1 -0.344 1.438c-0.156 0.551-0.321 1.126-0.531 1.594-0.211 0.469-0.475 0.889-0.594 1.344-0.119 0.455-0.163 0.965-0.063 1.5 0.201 1.069 1.13 2.008 2.125 2.313 0.498 0.152 0.964 0.195 1.438 0.063 0.473-0.133 0.923-0.431 1.281-0.781 0.717-0.701 1.154-1.617 1.406-2.531 0.126-0.457 0.221-0.922 0.25-1.375 0.029-0.453-0.008-0.868-0.188-1.25-0.179-0.382-0.49-0.699-0.844-0.906-0.353-0.207-0.747-0.325-1.125-0.406-0.756-0.163-1.502-0.131-2.188-0.031-0.213 0.031-0.421 0.097-0.625 0.125v-0.094c0-0.019 0.032-0.013 0.031-0.031z" fill="#00758f"/>
      </g>
      <path d="m-76.844 34.161c3.568 0.025 6.832-0.264 9.844-1.031 0.753-0.192 1.776-0.192 1.906-0.781 0.391-0.811-0.241-1.611-0.531-2.312-0.361-0.881-0.721-1.692-1.063-2.531-0.536-1.317-1.098-2.562-1.718-3.688-1.78-3.24-3.761-6.036-5.969-8.281-1.366-1.39-4.346-2.275-5.969-3.094-0.912-0.46-2.422-0.865-3.25-1.344-1.659-0.959-2.673-1.811-3.938-2.875-4.431-3.731-8.495-7.812-11.938-12.312l-1.906-2.719c-3.604-5.976-6.682-12.533-9.188-19.156-1.757-4.649-2.69-9.224-4.719-13.594-9.693-20.992-20.227-33.702-36.438-46.187-3.891-2.998-8.536-5.278-13.5-7.219-2.641-0.53-5.585-0.819-8.719-1.125-1.688-0.327-3.376-0.028-5.062-0.094-1.118-0.414-2.253-1.654-3.25-2.25-4.091-2.453-14.633-8.146-17.656-0.781-1.917 4.676 2.855 9.254 4.5 11.594 1.168 1.666 2.68 3.533 3.469 5.406 0.521 1.236 0.625 2.518 1.125 3.812 1.246 3.252 2.381 6.845 4.031 9.844 0.856 1.551 1.799 3.178 2.906 4.562 0.671 0.84 1.817 1.218 2.063 2.531-1.156 1.625-1.229 4.129-0.594 5.969 0.98 2.871 3.026 5.967 5.844 7.719 1.117 0.697 4.004 2.197 5.469 1 1.474-1.2-0.155-4.749-0.75-5.969-0.75-1.534-1.921-2.883-2.719-4.344-0.54-0.991-0.98-2.119-1.406-3.156-0.932-2.262-1.406-4.747-2.438-7-0.47-1.023-1.258-2.092-1.906-3.031-0.783-1.135-1.627-1.916-2.25-3.25-0.204-0.435-0.485-1.152-0.188-1.625 0.094-0.317 0.291-0.444 0.656-0.531 0.63-0.455 2.385 0.147 3.031 0.375 1.78 0.627 3.271 1.235 4.781 2.125 0.723 0.427 1.461 1.25 2.344 1.469h1.031c1.566 0.361 3.313 0.112 4.781 0.562 2.589 0.795 4.913 2.01 7 3.312 6.384 3.986 11.597 9.652 15.156 16.438 0.591 1.127 0.85 2.202 1.344 3.438 1.023 2.573 2.285 5.221 3.281 7.719 1 2.493 1.978 5 3.406 7.094 0.745 1.09 3.719 1.673 5.062 2.25 0.937 0.403 2.502 0.747 3.375 1.219 1.738 0.937 3.438 2.044 5.062 3.094 0.812 0.525 3.338 1.832 3.531 2.844-2.029-0.048-3.558 0.136-4.875 0.562-1.359 0.44-2.599 1.054-3.781 1.594v0.094h-0.031c0.764 0.803 0.884 2.053 1.656 2.969 1.933 2.286 5.085 4.558 8.719 5.844 1.696 0.6 3.935 0.967 6.094 1.438 0.539 0.118 1.08 0.293 1.625 0.438v-0.219c-0.379-0.39-0.483-0.981-0.75-1.5-0.548-1.042-1.14-2.155-1.75-3.156z" fill="#00758f"/>
      <path d="m-134.34 70.339c-0.801 0.01-1.375 0.102-1.938 0.25v0.063h0.094c0.373 0.768 1.035 1.268 1.5 1.938 0.358 0.792 0.66 1.584 1.031 2.344 0.01 0 0.02 0 0.031 0 0.641-0.447 0.953-1.172 0.938-2.25-0.06-0.26-0.07-0.509-0.188-0.75-0.138-0.278-0.432-0.436-0.656-0.656-0.225-0.22-0.701-0.339-0.813-0.719v-0.156c0.01-0.01 0-0.021 0-0.031 0-0.01 0-0.021 0-0.031z" fill="#00758f"/>
    </g>
  </g>
</svg>
